<?xml version="1.0" encoding="UTF-8" standalone="no"?>
<!-- Created with Inkscape (http://www.inkscape.org/) -->

<svg 
     xmlns="http://www.w3.org/2000/svg" 
     xmlns:ns0="http://www.iki.fi/pav/software/textext/" 
     xmlns:dc="http://purl.org/dc/elements/1.1/" 
     xmlns:cc="http://creativecommons.org/ns#" 
     xmlns:rdf="http://www.w3.org/1999/02/22-rdf-syntax-ns#" 
     xmlns:svg="http://www.w3.org/2000/svg" 
     xmlns:xlink="http://www.w3.org/1999/xlink" 
     xmlns:sodipodi="http://sodipodi.sourceforge.net/DTD/sodipodi-0.dtd" 
     xmlns:inkscape="http://www.inkscape.org/namespaces/inkscape" 
     width="300" height="240" viewBox="0 0 327.68271 258.62756" 
     id="wikibook-latex-cover" sodipodi:docname="Wikibook LaTeX Cover"
     version="1.1" inkscape:version="0.47pre3 r22311">
<sodipodi:namedview id="base" pagecolor="#ffffff" bordercolor="#666666" borderopacity="1.0" inkscape:pageopacity="0.0" inkscape:pageshadow="2" inkscape:zoom="1.5000463" inkscape:cx="249.37503" inkscape:cy="216.59178" inkscape:document-units="px" inkscape:current-layer="layer1" showgrid="false" inkscape:window-width="1916" inkscape:window-height="1139" inkscape:window-x="-1" inkscape:window-y="0" inkscape:window-maximized="1" />
<defs id="defs4">
    <marker inkscape:stockid="Arrow1Mend" orient="auto" refY="0" refX="0" id="Arrow1Mend" style="overflow:visible">
        <path id="path4075" d="M 0,0 5,-5 -12.5,0 5,5 0,0 z" style="fill-rule:evenodd;stroke:#000000;stroke-width:1pt;marker-start:none" transform="matrix(-0.4,0,0,-0.4,-4,0)" />
    </marker>
    <marker inkscape:stockid="Arrow2Mend" orient="auto" refY="0" refX="0" id="Arrow2Mend" style="overflow:visible">
        <path id="path4093" style="font-size:12px;fill-rule:evenodd;stroke-width:0.625;stroke-linejoin:round" d="M 8.7185878,4.0337352 -2.2072895,0.01601326 8.7185884,-4.0017078 c -1.7454984,2.3720609 -1.7354408,5.6174519 -6e-7,8.035443 z" transform="scale(-0.6,-0.6)" />
    </marker>
    <marker inkscape:stockid="Arrow1Send" orient="auto" refY="0" refX="0" id="Arrow1Send" style="overflow:visible">
        <path id="path4081" d="M 0,0 5,-5 -12.5,0 5,5 0,0 z" style="fill-rule:evenodd;stroke:#000000;stroke-width:1pt;marker-start:none" transform="matrix(-0.2,0,0,-0.2,-1.2,0)" />
    </marker>
    <inkscape:perspective sodipodi:type="inkscape:persp3d" inkscape:vp_x="0 : 526.18109 : 1" inkscape:vp_y="0 : 1000 : 0" inkscape:vp_z="744.09448 : 526.18109 : 1" inkscape:persp3d-origin="372.04724 : 350.78739 : 1" id="perspective10" />
</defs>
<metadata id="metadata7">
    <rdf:RDF>
        <cc:Work rdf:about="">
            <dc:format>image/svg+xml</dc:format>
            <dc:type rdf:resource="http://purl.org/dc/dcmitype/StillImage" />
            <dc:title></dc:title>
        </cc:Work>
    </rdf:RDF>
</metadata>
<g inkscape:label="Layer 1" inkscape:groupmode="layer" id="layer1" transform="translate(-1302.3753,-760.53603)">
    <path style="fill:none;stroke:#000000;stroke-width:1px;stroke-linecap:butt;stroke-linejoin:miter;stroke-opacity:1;marker-end:url(#Arrow2Mend)" d="m 1302.8753,761.03603 39.383,135.41271" id="path4059" />
    <path style="fill:none;stroke:#000000;stroke-width:1px;stroke-linecap:butt;stroke-linejoin:miter;stroke-opacity:1;marker-end:url(#Arrow1Mend)" d="m 1303.9543,831.7096 38.304,183.967" id="path4061" sodipodi:nodetypes="cc" />
    <path style="fill:none;stroke:#000000;stroke-width:1px;stroke-linecap:butt;stroke-linejoin:miter;stroke-opacity:1;marker-mid:none;marker-end:url(#Arrow1Mend)" d="m 1553.2,761.57552 74.9895,134.33373" id="path4891" />
    <path style="fill:none;stroke:#000000;stroke-width:1px;stroke-linecap:butt;stroke-linejoin:miter;stroke-opacity:1;marker-mid:none;marker-end:url(#Arrow1Mend)" d="m 1554.6186,831.7096 74.9895,183.967" id="path5467" />
    <rect style="fill:silver;fill-opacity:0.2;stroke:#000000;stroke-width:0.5;stroke-miterlimit:4;stroke-opacity:1;stroke-dasharray:0.5, 0.5;stroke-dashoffset:0" id="rect4055" width="250.32469" height="71.752556" x="1303.9542" y="761.03601" />
    <rect style="fill:white;fill-opacity:0.8;stroke:#000000;stroke-width:0.5;stroke-miterlimit:4;stroke-opacity:1;stroke-dasharray:0.5, 0.5;stroke-dashoffset:0" id="rect4057" width="287.54971" height="121.38589" x="1342.2583" y="897.52771" />
    <g id="g3167" ns0:preamble="/home/nmichalo/textextpreamble.tex" ns0:text="\\LaTeX" transform="matrix(10.855,0,0,11.362081,-1076.6447,-545.2946)">
        <defs id="defs3169">
            <g id="g3171">
                <symbol id="textext-204e4e81-0" overflow="visible" style="overflow:visible">
                    <path id="path3174" d="" style="stroke:none" />
                </symbol>
                <symbol id="textext-204e4e81-1" overflow="visible" style="overflow:visible">
                    <path id="path3177" d="m 5.796875,-2.578125 -0.25,0 c -0.109375,1.015625 -0.25,2.265625 -2,2.265625 l -0.8125,0 C 2.265625,-0.3125 2.25,-0.375 2.25,-0.703125 l 0,-5.3125 C 2.25,-6.359375 2.25,-6.5 3.1875,-6.5 l 0.328125,0 0,-0.3125 C 3.15625,-6.78125 2.25,-6.78125 1.84375,-6.78125 c -0.390625,0 -1.171875,0 -1.515625,-0.03125 l 0,0.3125 0.234375,0 c 0.765625,0 0.796875,0.109375 0.796875,0.46875 l 0,5.25 c 0,0.359375 -0.03125,0.46875 -0.796875,0.46875 l -0.234375,0 0,0.3125 5.1875,0 0.28125,-2.578125 z m 0,0" style="stroke:none" />
                </symbol>
                <symbol id="textext-204e4e81-2" overflow="visible" style="overflow:visible">
                    <path id="path3180" d="m 6.640625,-6.75 -6.09375,0 -0.1875,2.25 0.25,0 C 0.75,-6.109375 0.890625,-6.4375 2.40625,-6.4375 c 0.171875,0 0.4375,0 0.53125,0.015625 0.21875,0.046875 0.21875,0.15625 0.21875,0.375 l 0,5.265625 c 0,0.328125 0,0.46875 -1.046875,0.46875 l -0.40625,0 0,0.3125 C 2.109375,-0.03125 3.125,-0.03125 3.59375,-0.03125 c 0.453125,0 1.484375,0 1.890625,0.03125 l 0,-0.3125 -0.40625,0 c -1.046875,0 -1.046875,-0.140625 -1.046875,-0.46875 l 0,-5.265625 c 0,-0.1875 0,-0.328125 0.1875,-0.375 0.109375,-0.015625 0.375,-0.015625 0.5625,-0.015625 1.515625,0 1.65625,0.328125 1.796875,1.9375 l 0.25,0 -0.1875,-2.25 z m 0,0" style="stroke:none" />
                </symbol>
                <symbol id="textext-204e4e81-3" overflow="visible" style="overflow:visible">
                    <path id="path3183" d="m 6.5,-2.578125 -0.25,0 C 6,-1.03125 5.765625,-0.3125 4.0625,-0.3125 l -1.328125,0 C 2.265625,-0.3125 2.25,-0.375 2.25,-0.703125 l 0,-2.671875 0.890625,0 c 0.96875,0 1.078125,0.328125 1.078125,1.171875 l 0.25,0 0,-2.640625 -0.25,0 c 0,0.859375 -0.109375,1.171875 -1.078125,1.171875 l -0.890625,0 0,-2.40625 c 0,-0.328125 0.015625,-0.390625 0.484375,-0.390625 l 1.28125,0 c 1.53125,0 1.796875,0.546875 1.953125,1.9375 l 0.25,0 -0.28125,-2.25 -5.609375,0 0,0.3125 0.234375,0 c 0.765625,0 0.796875,0.109375 0.796875,0.46875 l 0,5.21875 c 0,0.359375 -0.03125,0.46875 -0.796875,0.46875 l -0.234375,0 0,0.3125 5.75,0 L 6.5,-2.578125 z m 0,0" style="stroke:none" />
                </symbol>
                <symbol id="textext-204e4e81-4" overflow="visible" style="overflow:visible">
                    <path id="path3186" d="m 4,-3.84375 1.375,-2.015625 c 0.21875,-0.3125 0.5625,-0.625 1.4375,-0.640625 l 0,-0.3125 c -0.375,0.015625 -0.84375,0.03125 -1.09375,0.03125 -0.40625,0 -0.890625,0 -1.28125,-0.03125 l 0,0.3125 c 0.390625,0.015625 0.609375,0.234375 0.609375,0.453125 0,0.109375 -0.015625,0.125 -0.078125,0.234375 L 3.828125,-4.125 2.546875,-6.046875 C 2.515625,-6.078125 2.46875,-6.15625 2.46875,-6.203125 2.46875,-6.3125 2.6875,-6.484375 3.125,-6.5 l 0,-0.3125 c -0.359375,0.03125 -1.078125,0.03125 -1.453125,0.03125 -0.3125,0 -0.9375,0 -1.296875,-0.03125 l 0,0.3125 0.1875,0 c 0.546875,0 0.734375,0.0625 0.921875,0.34375 L 3.3125,-3.375 1.6875,-0.96875 C 1.546875,-0.765625 1.25,-0.3125 0.234375,-0.3125 l 0,0.3125 c 0.359375,-0.015625 0.78125,-0.03125 1.109375,-0.03125 0.375,0 0.921875,0 1.28125,0.03125 l 0,-0.3125 C 2.15625,-0.3125 2,-0.59375 2,-0.765625 2,-0.859375 2.03125,-0.890625 2.09375,-1 l 1.421875,-2.09375 1.5625,2.375 c 0.03125,0.046875 0.0625,0.078125 0.0625,0.109375 0,0.125 -0.21875,0.296875 -0.65625,0.296875 l 0,0.3125 C 4.828125,-0.03125 5.5625,-0.03125 5.9375,-0.03125 c 0.421875,0 0.875,0.015625 1.296875,0.03125 l 0,-0.3125 -0.1875,0 c -0.515625,0 -0.734375,-0.046875 -0.9375,-0.359375 L 4,-3.84375 z m 0,0" style="stroke:none" />
                </symbol>
                <symbol id="textext-204e4e81-5" overflow="visible" style="overflow:visible">
                    <path id="path3189" d="" style="stroke:none" />
                </symbol>
                <symbol id="textext-204e4e81-6" overflow="visible" style="overflow:visible">
                    <path id="path3192" d="M 3.125,-4.8125 C 3.09375,-4.921875 3.0625,-4.96875 2.9375,-4.96875 c -0.140625,0 -0.15625,0.046875 -0.203125,0.15625 L 1.125,-0.734375 C 1.0625,-0.5625 0.9375,-0.25 0.3125,-0.25 l 0,0.25 C 0.546875,-0.015625 0.796875,-0.03125 1.03125,-0.03125 1.3125,-0.03125 1.828125,0 1.875,0 l 0,-0.25 c -0.3125,0 -0.515625,-0.140625 -0.515625,-0.328125 0,-0.0625 0.015625,-0.078125 0.046875,-0.140625 l 0.328125,-0.859375 1.984375,0 L 4.125,-0.5625 c 0,0.03125 0.03125,0.078125 0.03125,0.109375 0,0.203125 -0.375,0.203125 -0.5625,0.203125 l 0,0.25 C 3.9375,-0.015625 4.390625,-0.03125 4.625,-0.03125 4.953125,-0.03125 5.484375,0 5.546875,0 l 0,-0.25 -0.125,0 c -0.46875,0 -0.515625,-0.078125 -0.59375,-0.265625 L 3.125,-4.8125 z m -0.40625,0.71875 0.890625,2.265625 -1.78125,0 0.890625,-2.265625 z m 0,0" style="stroke:none" />
                </symbol>
            </g>
        </defs>
        <g id="textext-204e4e81-7">
            <g id="g3195" style="fill:#000000;fill-opacity:1">
                <use id="use3197" y="134.765" x="223.43201" xlink:href="#textext-204e4e81-1" width="744.09448" height="1052.3622" />
            </g>
            <g id="g3199" style="fill:#000000;fill-opacity:1">
                <use id="use3201" y="132.722" x="226.07201" xlink:href="#textext-204e4e81-6" width="744.09448" height="1052.3622" />
            </g>
            <g id="g3203" style="fill:#000000;fill-opacity:1">
                <use id="use3205" y="134.765" x="230.459" xlink:href="#textext-204e4e81-2" width="744.09448" height="1052.3622" />
            </g>
            <g id="g3207" style="fill:#000000;fill-opacity:1">
                <use id="use3209" y="136.909" x="235.993" xlink:href="#textext-204e4e81-3" width="744.09448" height="1052.3622" />
            </g>
            <g id="g3211" style="fill:#000000;fill-opacity:1">
                <use id="use3213" y="134.765" x="241.528" xlink:href="#textext-204e4e81-4" width="744.09448" height="1052.3622" />
            </g>
        </g>
    </g>
    <g ns0:text="\\texttt{\\textcolor{red}{\\{}\\textcolor{darkred}{\\textbackslash LaTeX}\\textcolor{red}{\\}}}" ns0:preamble="~/nmichalo/textextpreamble.tex" transform="matrix(6,0,0,6,-36.146022,3.2369572)" id="g3024">
        <defs id="defs3026">
            <g id="g3028">
                <symbol overflow="visible" id="textext-e61a4101-0" style="overflow:visible">
                    <path style="stroke:none" d="" id="path3031" />
                </symbol>
                <symbol overflow="visible" id="textext-e61a4101-1" style="overflow:visible">
                    <path style="stroke:none" d="m 2.828125,-5.609375 c 0,-0.71875 0,-0.9375 0.234375,-1.1875 C 3.234375,-6.984375 3.46875,-7.21875 4.171875,-7.25 4.21875,-7.265625 4.25,-7.3125 4.25,-7.359375 c 0,-0.125 -0.078125,-0.125 -0.1875,-0.125 -1,0 -1.890625,0.515625 -1.90625,1.234375 l 0,1.828125 c 0,0.9375 0,1.09375 -0.265625,1.375 -0.140625,0.140625 -0.40625,0.40625 -1.03125,0.4375 -0.078125,0 -0.140625,0.015625 -0.140625,0.109375 0,0.109375 0.0625,0.109375 0.15625,0.125 0.4375,0.015625 1.28125,0.234375 1.28125,1.234375 l 0,1.96875 c 0,0.578125 0,0.921875 0.515625,1.28125 C 3.09375,2.40625 3.75,2.5 4.0625,2.5 4.171875,2.5 4.25,2.5 4.25,2.375 4.25,2.28125 4.203125,2.28125 4.09375,2.265625 3.3125,2.21875 2.9375,1.78125 2.84375,1.421875 2.828125,1.3125 2.828125,1.28125 2.828125,0.9375 l 0,-1.5 c 0,-0.296875 0,-0.796875 -0.03125,-0.90625 C 2.671875,-2.125 2.03125,-2.375 1.640625,-2.5 c 1.1875,-0.328125 1.1875,-1.03125 1.1875,-1.3125 l 0,-1.796875 z m 0,0" id="path3034" />
                </symbol>
                <symbol overflow="visible" id="textext-e61a4101-2" style="overflow:visible">
                    <path style="stroke:none" d="M 4,2.265625 C 4.03125,2.375 4.078125,2.5 4.21875,2.5 c 0.109375,0 0.203125,-0.09375 0.203125,-0.203125 0,-0.03125 0,-0.046875 -0.0625,-0.1875 L 0.984375,-7.25 C 0.9375,-7.359375 0.890625,-7.484375 0.75,-7.484375 c -0.109375,0 -0.1875,0.09375 -0.1875,0.203125 0,0.03125 0,0.046875 0.046875,0.1875 L 4,2.265625 z m 0,0" id="path3037" />
                </symbol>
                <symbol overflow="visible" id="textext-e61a4101-3" style="overflow:visible">
                    <path style="stroke:none" d="m 2.828125,-5.8125 c 0,-0.578125 0,-0.921875 -0.53125,-1.28125 -0.421875,-0.296875 -1.0625,-0.390625 -1.375,-0.390625 -0.109375,0 -0.203125,0 -0.203125,0.125 0,0.09375 0.0625,0.09375 0.15625,0.109375 0.796875,0.046875 1.15625,0.484375 1.25,0.84375 0.03125,0.109375 0.03125,0.140625 0.03125,0.484375 l 0,1.5 c 0,0.296875 0,0.796875 0.015625,0.90625 0.125,0.65625 0.765625,0.90625 1.15625,1.015625 C 2.15625,-2.15625 2.15625,-1.453125 2.15625,-1.171875 l 0,1.796875 c 0,0.71875 0,0.9375 -0.25,1.1875 C 1.734375,2 1.5,2.234375 0.8125,2.265625 0.75,2.28125 0.71875,2.328125 0.71875,2.375 0.71875,2.5 0.8125,2.5 0.921875,2.5 c 0.984375,0 1.875,-0.515625 1.90625,-1.234375 l 0,-1.828125 c 0,-0.9375 0,-1.09375 0.25,-1.375 C 3.21875,-2.078125 3.484375,-2.34375 4.109375,-2.375 4.1875,-2.375 4.25,-2.390625 4.25,-2.5 4.25,-2.59375 4.203125,-2.59375 4.09375,-2.609375 3.671875,-2.625 2.828125,-2.84375 2.828125,-3.84375 l 0,-1.96875 z m 0,0" id="path3040" />
                </symbol>
                <symbol overflow="visible" id="textext-e61a4101-4" style="overflow:visible">
                    <path style="stroke:none" d="" id="path3043" />
                </symbol>
                <symbol overflow="visible" id="textext-e61a4101-5" style="overflow:visible">
                    <path style="stroke:none" d="m 1.78125,-5.484375 0.546875,0 c 0.140625,0 0.40625,0 0.40625,-0.296875 0,-0.3125 -0.25,-0.3125 -0.40625,-0.3125 l -1.609375,0 c -0.15625,0 -0.40625,0 -0.40625,0.3125 0,0.296875 0.25,0.296875 0.40625,0.296875 l 0.375,0 0,4.875 -0.375,0 c -0.15625,0 -0.40625,0 -0.40625,0.3125 C 0.3125,0 0.5625,0 0.71875,0 l 3.75,0 c 0.328125,0 0.390625,-0.09375 0.390625,-0.40625 l 0,-0.890625 c 0,-0.203125 0,-0.40625 -0.328125,-0.40625 -0.359375,0 -0.359375,0.203125 -0.359375,0.40625 l 0,0.6875 -2.390625,0 0,-4.875 z m 0,0" id="path3046" />
                </symbol>
                <symbol overflow="visible" id="textext-e61a4101-6" style="overflow:visible">
                    <path style="stroke:none" d="M 3.65625,-0.3125 C 3.875,-0.015625 4.34375,0 4.71875,0 c 0.28125,0 0.5,0 0.5,-0.3125 0,-0.296875 -0.25,-0.296875 -0.390625,-0.296875 -0.421875,0 -0.515625,-0.046875 -0.59375,-0.078125 l 0,-2.15625 c 0,-0.703125 -0.546875,-1.546875 -1.984375,-1.546875 -0.421875,0 -1.4375,0 -1.4375,0.734375 0,0.296875 0.203125,0.453125 0.4375,0.453125 0.15625,0 0.4375,-0.09375 0.4375,-0.453125 0,-0.078125 0.015625,-0.09375 0.21875,-0.109375 0.140625,-0.015625 0.265625,-0.015625 0.359375,-0.015625 0.75,0 1.265625,0.3125 1.265625,1.015625 -1.75,0.03125 -2.984375,0.53125 -2.984375,1.484375 0,0.6875 0.625,1.34375 1.640625,1.34375 0.375,0 1,-0.078125 1.46875,-0.375 z m -0.125,-1.859375 0,0.84375 c 0,0.21875 0,0.4375 -0.375,0.609375 -0.359375,0.171875 -0.8125,0.171875 -0.890625,0.171875 -0.625,0 -1.03125,-0.34375 -1.03125,-0.734375 0,-0.484375 0.859375,-0.859375 2.296875,-0.890625 z m 0,0" id="path3049" />
                </symbol>
                <symbol overflow="visible" id="textext-e61a4101-7" style="overflow:visible">
                    <path style="stroke:none" d="m 2.953125,-5.484375 1.328125,0 0,0.53125 c 0,0.1875 0,0.40625 0.328125,0.40625 0.359375,0 0.359375,-0.203125 0.359375,-0.40625 l 0,-0.734375 c 0,-0.296875 -0.0625,-0.40625 -0.40625,-0.40625 l -3.890625,0 c -0.328125,0 -0.40625,0.078125 -0.40625,0.40625 l 0,0.734375 c 0,0.1875 0,0.40625 0.328125,0.40625 0.359375,0 0.359375,-0.203125 0.359375,-0.40625 l 0,-0.53125 1.3125,0 0,4.875 -0.515625,0 c -0.140625,0 -0.390625,0 -0.390625,0.296875 C 1.359375,0 1.59375,0 1.75,0 L 3.484375,0 C 3.625,0 3.875,0 3.875,-0.296875 c 0,-0.3125 -0.234375,-0.3125 -0.390625,-0.3125 l -0.53125,0 0,-4.875 z m 0,0" id="path3052" />
                </symbol>
                <symbol overflow="visible" id="textext-e61a4101-8" style="overflow:visible">
                    <path style="stroke:none" d="m 4.234375,-1.90625 c 0.203125,0 0.390625,0 0.390625,-0.359375 0,-1.140625 -0.640625,-2.125 -1.9375,-2.125 -1.1875,0 -2.140625,1 -2.140625,2.234375 0,1.203125 1.015625,2.21875 2.296875,2.21875 1.3125,0 1.78125,-0.90625 1.78125,-1.15625 0,-0.265625 -0.28125,-0.265625 -0.34375,-0.265625 -0.1875,0 -0.265625,0.03125 -0.328125,0.21875 -0.21875,0.5 -0.765625,0.59375 -1.046875,0.59375 -0.75,0 -1.484375,-0.5 -1.65625,-1.359375 l 2.984375,0 z M 1.265625,-2.5 C 1.40625,-3.234375 2,-3.78125 2.6875,-3.78125 c 0.515625,0 1.140625,0.25 1.234375,1.28125 l -2.65625,0 z m 0,0" id="path3055" />
                </symbol>
                <symbol overflow="visible" id="textext-e61a4101-9" style="overflow:visible">
                    <path style="stroke:none" d="m 2.90625,-3.25 1.125,-2.234375 0.21875,0 c 0.140625,0 0.40625,0 0.40625,-0.296875 0,-0.3125 -0.265625,-0.3125 -0.40625,-0.3125 l -1.046875,0 c -0.140625,0 -0.390625,0 -0.390625,0.296875 0,0.3125 0.234375,0.3125 0.453125,0.3125 L 2.5625,-4.03125 1.796875,-5.484375 c 0.203125,0 0.421875,0 0.421875,-0.3125 0,-0.296875 -0.25,-0.296875 -0.390625,-0.296875 l -1.046875,0 c -0.140625,0 -0.40625,0 -0.40625,0.296875 0,0.3125 0.265625,0.3125 0.40625,0.3125 l 0.234375,0 1.203125,2.25 -1.328125,2.625 -0.21875,0 c -0.15625,0 -0.40625,0 -0.40625,0.3125 C 0.265625,0 0.515625,0 0.671875,0 l 1.03125,0 c 0.15625,0 0.40625,0 0.40625,-0.296875 0,-0.3125 -0.234375,-0.3125 -0.46875,-0.3125 l 0.921875,-1.9375 0.984375,1.9375 c -0.234375,0 -0.453125,0 -0.453125,0.3125 C 3.09375,0 3.34375,0 3.5,0 L 4.53125,0 C 4.6875,0 4.9375,0 4.9375,-0.296875 c 0,-0.3125 -0.25,-0.3125 -0.40625,-0.3125 l -0.21875,0 L 2.90625,-3.25 z m 0,0" id="path3058" />
                </symbol>
            </g>
        </defs>
        <g id="textext-e61a4101-10">
            <g style="fill:#ff0000;fill-opacity:1" id="g3061">
                <use xlink:href="#textext-e61a4101-1" x="223.43201" y="134.765" id="use3063" width="744.09448" height="1052.3622" />
            </g>
            <g style="fill:#7f0000;fill-opacity:1" id="g3065">
                <use xlink:href="#textext-e61a4101-2" x="228.4133" y="134.765" id="use3067" width="744.09448" height="1052.3622" />
            </g>
            <g style="fill:#7f0000;fill-opacity:1" id="g3069">
                <use xlink:href="#textext-e61a4101-5" x="233.395" y="134.765" id="use3071" width="744.09448" height="1052.3622" />
                <use xlink:href="#textext-e61a4101-6" x="238.62537" y="134.765" id="use3073" width="744.09448" height="1052.3622" />
                <use xlink:href="#textext-e61a4101-7" x="243.85573" y="134.765" id="use3075" width="744.09448" height="1052.3622" />
                <use xlink:href="#textext-e61a4101-8" x="249.08609" y="134.765" id="use3077" width="744.09448" height="1052.3622" />
                <use xlink:href="#textext-e61a4101-9" x="254.31647" y="134.765" id="use3079" width="744.09448" height="1052.3622" />
            </g>
            <g style="fill:#ff0000;fill-opacity:1" id="g3081">
                <use xlink:href="#textext-e61a4101-3" x="259.54599" y="134.765" id="use3083" width="744.09448" height="1052.3622" />
            </g>
        </g>
    </g>
</g>
</svg>
